<?xml version="1.0" standalone="no"?><!DOCTYPE svg PUBLIC "-//W3C//DTD SVG 1.1//EN" "http://www.w3.org/Graphics/SVG/1.1/DTD/svg11.dtd"><svg t="1488600654819" class="icon" style="" viewBox="0 0 1024 1024" version="1.1" xmlns="http://www.w3.org/2000/svg" p-id="6451" xmlns:xlink="http://www.w3.org/1999/xlink" width="200" height="200"><defs><style type="text/css"></style></defs><path d="M896 128V0H0v896h128v128h896V128h-128zM42.666667 853.333333V42.666667h810.666666v85.333333H128v725.333333H42.666667z m938.666666 128H170.666667V170.666667h810.666666v810.666666z" fill="" p-id="6452"></path><path d="M412.8 832l42.666667-5.546667a64 64 0 0 0 55.68-64V448l213.333333-53.973333v227.626666l-72.32 8.96a64 64 0 1 0 15.786667 126.08l42.666666-5.546666a64 64 0 0 0 55.68-64V320L469.333333 394.666667v301.653333l-72.32 8.96a64 64 0 1 0 15.786667 126.72z" fill="" p-id="6453"></path></svg>