<?xml version="1.0" standalone="no"?><!DOCTYPE svg PUBLIC "-//W3C//DTD SVG 1.1//EN" "http://www.w3.org/Graphics/SVG/1.1/DTD/svg11.dtd"><svg t="1488588100665" class="icon" style="" viewBox="0 0 1024 1024" version="1.1" xmlns="http://www.w3.org/2000/svg" p-id="1248" xmlns:xlink="http://www.w3.org/1999/xlink" width="200" height="200"><defs><style type="text/css"></style></defs><path d="M451.712 330.56c-59.008 0-117.76 7.168-174.784 21.312C258.048 356.544 246.592 379.328 251.264 398.144s23.744 30.336 42.624 25.664c51.456-12.736 104.576-19.2 157.888-19.2 102.272 0 200.256 22.976 291.2 68.352 5.056 2.496 10.368 3.712 15.68 3.712 12.928 0 25.344-10.816 31.552-23.168 8.64-17.344 1.6-38.528-15.808-47.168C673.536 356.032 564.992 330.56 451.712 330.56zM451.712 628.224c-47.552 0-94.528 7.104-139.648 20.992-13.952 4.288-21.696 33.856-17.408 47.744 4.288 13.952 19.072 21.76 33.024 17.408 40-12.416 81.792-18.688 124.032-18.688 70.528 0 140.352 17.92 201.856 51.776 4.032 2.24 8.384 3.264 12.736 3.264 9.344 0 18.368-4.928 23.104-13.696 7.04-12.736 2.432-43.584-10.368-50.624C609.792 648.384 531.136 628.224 451.712 628.224zM725.056 550.976c-83.776-43.52-178.304-66.56-273.28-66.56-52.992 0-105.728 7.04-156.608 20.928-16.384 4.48-26.048 32.448-21.568 48.832 4.48 16.384 21.376 26.048 37.824 21.568 45.568-12.416 92.864-18.752 140.352-18.752 86.4 0 168.768 20.096 244.928 59.648 4.544 2.368 9.344 3.456 14.144 3.456 11.136 0 21.824-17.152 27.328-27.648C745.984 577.408 740.096 558.784 725.056 550.976zM512 0C229.248 0 0 229.248 0 512s229.248 512 512 512 512-229.248 512-512C1024 229.184 794.752 0 512 0zM512 896c-212.096 0-384-171.904-384-384 0-212.096 171.904-384 384-384s384 171.904 384 384C896 724.096 724.096 896 512 896z" p-id="1249"></path></svg>