<?xml version="1.0" standalone="no"?><!DOCTYPE svg PUBLIC "-//W3C//DTD SVG 1.1//EN" "http://www.w3.org/Graphics/SVG/1.1/DTD/svg11.dtd"><svg t="1488588157382" class="icon" style="" viewBox="0 0 1024 1024" version="1.1" xmlns="http://www.w3.org/2000/svg" p-id="2489" xmlns:xlink="http://www.w3.org/1999/xlink" width="200" height="200"><defs><style type="text/css"></style></defs><path d="M957.248 410.688c-6.528-20.032-23.744-34.688-44.48-38.016l-236.8-37.376L562.624 96C553.344 76.48 533.632 64 512 64S470.656 76.48 461.376 96L348.032 335.296l-236.8 37.376C90.496 376 73.28 390.656 66.752 410.688 64.896 416.32 64 422.208 64 428.032 64 442.624 69.76 456.96 80.384 467.584l174.784 174.784-50.112 250.624c-4.288 21.376 4.288 43.392 21.888 56.256C236.736 956.352 248.32 960 259.968 960c9.344 0 18.688-2.304 27.2-7.04L512 828.096l224.832 124.8c8.512 4.736 17.792 7.04 27.2 7.04 11.648 0 23.232-3.648 33.024-10.752 17.6-12.864 26.176-34.88 21.888-56.256l-50.048-250.624 174.784-174.784C954.24 456.96 960 442.624 960 428.032 960 422.208 959.104 416.32 957.248 410.688z" p-id="2490"></path></svg>