<?xml version="1.0" standalone="no"?><!DOCTYPE svg PUBLIC "-//W3C//DTD SVG 1.1//EN" "http://www.w3.org/Graphics/SVG/1.1/DTD/svg11.dtd"><svg t="1488600727561" class="icon" style="" viewBox="0 0 1024 1024" version="1.1" xmlns="http://www.w3.org/2000/svg" p-id="8535" xmlns:xlink="http://www.w3.org/1999/xlink" width="200" height="200"><defs><style type="text/css"></style></defs><path d="M0 64l0 896 1024 0 0-896-1024 0zM384 640l0-192 256 0 0 192-256 0zM640 704l0 192-256 0 0-192 256 0zM640 192l0 192-256 0 0-192 256 0zM320 192l0 192-256 0 0-192 256 0zM64 448l256 0 0 192-256 0 0-192zM704 448l256 0 0 192-256 0 0-192zM704 384l0-192 256 0 0 192-256 0zM64 704l256 0 0 192-256 0 0-192zM704 896l0-192 256 0 0 192-256 0z" p-id="8536"></path></svg>